<svg id="svg" version="1.1" width="400" height="400" xmlns="http://www.w3.org/2000/svg" xmlns:xlink="http://www.w3.org/1999/xlink" style="display: block;"><g id="svgg"><path id="path0" d="" stroke="none" fill="#000000" fill-rule="evenodd"></path><path id="path1" d="" stroke="none" fill="#7f4040" fill-rule="evenodd"></path><path id="path2" d="M184.800 2.434 C 126.087 8.191,77.264 48.716,62.197 104.200 C 61.095 108.257,59.395 116.083,59.025 118.800 C 58.890 119.790,58.559 121.950,58.290 123.600 C 57.464 128.656,57.639 161.716,58.525 168.000 C 60.859 184.555,65.983 202.901,71.979 216.168 C 72.385 217.065,73.206 218.970,73.803 220.400 C 75.287 223.952,81.152 236.114,81.510 236.383 C 81.670 236.502,82.306 237.661,82.924 238.959 C 84.813 242.920,92.703 256.428,98.018 264.800 C 100.754 269.109,111.629 285.334,111.959 285.600 C 112.096 285.710,112.727 286.600,113.362 287.579 C 113.996 288.557,114.670 289.547,114.859 289.779 C 115.048 290.010,117.388 293.257,120.059 296.993 C 124.782 303.600,137.026 320.000,148.137 334.600 C 151.150 338.560,156.770 345.959,160.625 351.043 C 164.480 356.126,167.942 360.626,168.318 361.043 C 168.694 361.459,169.970 362.970,171.153 364.400 C 174.689 368.676,184.618 379.689,190.625 386.000 C 193.335 388.847,194.201 389.788,197.494 393.460 L 199.700 395.921 203.609 391.260 C 205.759 388.697,209.177 384.620,211.206 382.200 C 215.275 377.345,216.344 376.083,218.168 373.980 C 223.492 367.840,230.131 359.797,233.376 355.553 C 249.802 334.073,268.588 308.574,274.110 300.263 C 274.380 299.858,275.400 298.418,276.378 297.063 C 280.480 291.379,296.400 266.795,296.400 266.143 C 296.400 266.035,296.827 265.374,297.349 264.673 C 297.871 263.973,299.334 261.600,300.600 259.400 C 301.867 257.200,303.218 254.860,303.602 254.200 C 305.777 250.471,307.272 247.765,307.876 246.467 C 308.251 245.660,308.682 244.910,308.833 244.800 C 308.984 244.690,309.558 243.700,310.108 242.600 C 310.659 241.500,312.480 237.945,314.156 234.701 C 315.831 231.456,318.213 226.596,319.449 223.901 C 320.685 221.205,322.196 217.912,322.808 216.583 C 325.863 209.945,333.943 188.000,333.332 188.000 C 333.205 188.000,333.283 187.775,333.505 187.500 C 333.726 187.225,334.051 186.370,334.227 185.600 C 334.402 184.830,334.600 184.020,334.666 183.800 C 336.352 178.208,339.097 166.064,339.775 161.200 C 339.912 160.210,340.309 157.420,340.655 155.000 C 342.094 144.942,341.664 125.385,339.779 115.200 C 334.812 88.359,322.788 67.508,298.023 42.788 C 268.859 13.677,225.985 -1.604,184.800 2.434 M211.800 46.644 C 294.645 56.805,329.656 158.727,270.592 217.792 C 217.756 270.628,127.127 249.193,103.828 178.351 C 80.697 108.016,138.390 37.641,211.800 46.644 " stroke="none" fill="#c20a19" fill-rule="evenodd"></path><path id="path3" d="M125.000 113.583 C 113.438 117.526,105.056 125.855,102.217 136.221 C 101.858 137.529,101.393 138.913,101.183 139.295 C 100.684 140.200,100.684 153.000,101.183 153.905 C 101.393 154.287,101.858 155.671,102.217 156.979 C 105.827 170.161,119.624 180.865,132.882 180.771 L 137.000 180.741 133.400 179.761 C 98.785 170.329,98.785 122.871,133.400 113.439 L 137.000 112.459 132.600 112.475 C 128.884 112.489,127.702 112.661,125.000 113.583 M176.892 130.700 L 177.000 139.800 180.300 139.916 L 183.600 140.032 183.600 130.816 L 183.600 121.600 180.192 121.600 L 176.785 121.600 176.892 130.700 M204.513 125.500 C 202.714 127.645,200.693 129.996,200.021 130.725 C 198.833 132.014,198.030 140.070,199.100 139.973 C 199.403 139.945,214.086 122.560,214.333 121.936 C 214.407 121.751,212.963 121.600,211.125 121.600 L 207.783 121.600 204.513 125.500 M272.512 122.100 C 271.875 122.924,266.841 131.429,266.566 132.144 C 266.409 132.553,266.957 133.892,268.000 135.646 L 269.687 138.486 274.443 130.459 C 277.060 126.044,279.200 122.245,279.200 122.016 C 279.200 121.396,272.996 121.474,272.512 122.100 M138.400 125.085 C 138.400 125.306,139.584 125.876,141.031 126.351 C 160.241 132.657,160.241 160.543,141.031 166.849 C 137.343 168.060,137.649 168.567,141.900 168.290 C 165.358 166.762,170.194 134.151,148.152 126.138 C 145.202 125.066,138.400 124.331,138.400 125.085 M222.300 134.576 L 219.200 137.849 219.200 141.297 L 219.200 144.745 222.399 150.072 L 225.599 155.400 225.599 143.300 C 225.600 136.645,225.555 131.223,225.500 131.252 C 225.445 131.280,224.005 132.776,222.300 134.576 M243.847 133.300 C 244.009 133.575,245.010 135.097,246.071 136.682 C 247.132 138.267,248.000 139.752,248.000 139.982 C 248.000 140.242,249.363 140.400,251.600 140.400 C 253.580 140.400,255.200 140.303,255.200 140.185 C 255.200 140.066,254.115 138.356,252.790 136.385 L 250.379 132.800 246.966 132.800 C 244.345 132.800,243.621 132.916,243.847 133.300 M255.124 154.999 L 255.248 159.600 258.624 159.600 L 262.000 159.600 262.000 155.000 L 262.000 150.400 258.500 150.399 L 255.000 150.398 255.124 154.999 M204.231 153.343 C 201.856 156.123,201.803 155.825,206.152 164.200 L 209.890 171.400 213.145 171.516 C 215.197 171.589,216.400 171.479,216.400 171.218 C 216.400 170.593,206.649 151.200,206.335 151.200 C 206.185 151.200,205.238 152.164,204.231 153.343 M177.067 153.467 C 176.920 153.613,176.800 157.753,176.800 162.667 L 176.800 171.600 180.200 171.600 L 183.600 171.600 183.600 162.400 L 183.600 153.200 180.467 153.200 C 178.743 153.200,177.213 153.320,177.067 153.467 " stroke="none" fill="#c99700" fill-rule="evenodd"></path><path id="path4" d="M133.400 113.439 C 98.673 122.901,98.817 170.537,133.600 179.787 C 137.586 180.847,146.337 181.249,147.905 180.443 C 148.287 180.247,149.680 179.775,151.000 179.394 C 161.510 176.361,171.037 166.541,173.694 156.000 C 174.329 153.480,174.811 153.290,180.700 153.230 L 183.600 153.200 183.600 162.400 L 183.600 171.600 191.400 171.600 L 199.200 171.600 199.200 165.417 L 199.200 159.234 200.800 157.552 C 201.680 156.627,202.400 155.783,202.400 155.678 C 202.400 155.345,206.049 151.200,206.342 151.200 C 206.497 151.200,208.868 155.778,211.611 161.372 L 216.600 171.545 247.100 171.572 L 277.600 171.600 277.600 161.144 L 277.600 150.688 286.692 136.844 C 291.693 129.230,295.923 122.940,296.092 122.867 C 296.262 122.793,296.400 122.478,296.400 122.167 C 296.400 121.695,294.953 121.600,287.800 121.600 C 282.111 121.600,279.200 121.741,279.200 122.016 C 279.200 122.245,277.062 126.040,274.449 130.449 L 269.698 138.466 268.261 136.101 C 267.471 134.800,266.684 133.361,266.512 132.903 C 266.340 132.445,264.850 129.721,263.200 126.849 L 260.200 121.626 237.400 121.637 L 214.600 121.648 207.000 130.797 C 202.820 135.829,199.248 139.958,199.063 139.973 C 198.877 139.988,198.857 135.860,199.017 130.800 L 199.309 121.600 191.454 121.600 L 183.600 121.600 183.600 130.800 L 183.600 140.000 180.700 139.970 C 174.811 139.910,174.329 139.720,173.694 137.200 C 171.037 126.659,161.510 116.839,151.000 113.806 C 149.680 113.425,148.287 112.953,147.905 112.757 C 146.377 111.972,137.200 112.404,133.400 113.439 M148.152 126.138 C 167.067 133.014,167.067 160.186,148.152 167.062 C 145.050 168.189,138.400 168.869,138.400 168.059 C 138.400 167.807,137.995 167.596,137.500 167.592 C 131.161 167.532,122.874 160.074,120.620 152.400 C 117.224 140.843,126.759 125.709,137.500 125.608 C 137.995 125.604,138.400 125.393,138.400 125.141 C 138.400 124.331,145.050 125.011,148.152 126.138 M225.599 143.300 L 225.599 155.400 222.399 150.072 C 220.640 147.142,219.200 144.564,219.200 144.344 C 219.200 144.123,218.751 143.176,218.202 142.239 L 217.204 140.536 218.202 139.598 C 218.751 139.083,219.200 138.478,219.200 138.255 C 219.200 137.947,224.983 131.518,225.500 131.252 C 225.555 131.223,225.600 136.645,225.599 143.300 M252.790 136.385 C 254.115 138.356,255.200 140.074,255.200 140.202 C 255.200 140.330,251.602 140.381,247.203 140.317 L 239.207 140.200 239.203 136.720 L 239.200 133.240 241.500 133.096 C 242.765 133.016,245.280 132.917,247.090 132.876 L 250.379 132.800 252.790 136.385 M262.000 155.089 L 262.000 159.723 256.900 159.463 C 254.095 159.320,248.965 159.203,245.500 159.202 L 239.200 159.200 239.202 154.900 L 239.204 150.600 250.602 150.528 L 262.000 150.455 262.000 155.089 " stroke="none" fill="#ffc107" fill-rule="evenodd"></path></g></svg>